<svg viewBox="0 0 9 9" xmlns="http://www.w3.org/2000/svg">
  <g id="Page-1" stroke="none" stroke-width="1" fill="none" fill-rule="evenodd">
    <g id="SHOP-DETAIL-NEED-GEM" transform="translate(-199.000000, -119.000000)" fill="#000000">
      <g id="you-have" transform="translate(180.000000, 117.000000)">
        <g id="NEED-MORE-GEMS" transform="translate(17.000000, 0.000000)">
          <path d="M6.50052941,9.68494118 C6.05582353,9.68494118 5.69,9.34294118 5.69,8.89876471 C5.69,8.45405882 6.05582353,8.08823529 6.50052941,8.08823529 C6.94523529,8.08823529 7.31,8.45405882 7.31,8.89876471 C7.31,9.34294118 6.94523529,9.68494118 6.50052941,9.68494118 L6.50052941,9.68494118 Z M5.87264706,3.76876471 C5.87264706,3.467 6.18288235,3.31611765 6.50052941,3.31611765 C6.80970588,3.31611765 7.12735294,3.467 7.12735294,3.76876471 L7.12735294,3.80052941 L6.91294118,7.43758824 C6.89758824,7.68376471 6.69905882,7.80235294 6.50052941,7.80235294 C6.302,7.80235294 6.10347059,7.68376471 6.08705882,7.43758824 L5.87264706,3.80052941 L5.87264706,3.76876471 Z M6.5,2 C4.01494118,2 2,4.01494118 2,6.5 C2,8.98558824 4.01494118,11 6.5,11 C8.98505882,11 11,8.98558824 11,6.5 C11,4.01494118 8.98505882,2 6.5,2 L6.5,2 Z" id="Fill-1"></path>
        </g>
      </g>
    </g>
  </g>
</svg>