<svg viewBox="0 0 14 14" xmlns="http://www.w3.org/2000/svg">
  <g id="Page-1" stroke="none" stroke-width="1" fill="none" fill-rule="evenodd">
    <g id="Mobile-Portrait" transform="translate(-132.000000, -44.000000)" fill="#000000">
      <path d="M139,58 C142.865993,58 146,54.8659932 146,51 C146,47.1340068 142.865993,44 139,44 C135.134007,44 132,47.1340068 132,51 C132,54.8659932 135.134007,58 139,58 Z M142,50 L140,50 L140,48 C140,47.4475 139.55225,47 139,47 C138.44775,47 138,47.4475 138,48 L138,50 L136,50 C135.44775,50 135,50.4475 135,51 C135,51.5525 135.44775,52 136,52 L138,52 L138,54 C138,54.5525 138.44775,55 139,55 C139.55225,55 140,54.5525 140,54 L140,52 L142,52 C142.55225,52 143,51.5525 143,51 C143,50.4475 142.55225,50 142,50 Z" id="Add"></path>
    </g>
  </g>
</svg>